<svg width="1080" height="1080" viewBox="0 0 1080 1080" fill="none" xmlns="http://www.w3.org/2000/svg">
<g clip-path="url(#clip0_55_86)">
<path d="M258.706 376.871C366.996 263.277 475.085 157.728 598.975 141.43C722.865 125.132 863.073 197.352 952.1 303.536C1041.78 409.57 1080.14 548.984 1050.2 683.865C1020.12 818.161 921.743 947.925 791.992 1001.26C662.24 1054.59 501.769 1031.35 353.45 974.536C204.998 917.14 68.8326 826.76 55.1196 719.799C42.1931 613.272 150.415 490.465 258.706 376.871Z" fill="#356C2D"/>
<g clip-path="url(#clip1_55_86)">
<path d="M893.5 801.044C883.122 887.056 757.664 923.252 656.106 926.483C554.679 930.548 478.333 901.454 411.787 862.781C345.591 823.766 288.716 774.68 230.829 695.852C173.073 617.856 114.436 510.951 135.266 453.138C156.926 395.473 257.703 387.243 364.011 393.773C469.839 399.813 581.197 420.613 689.467 499.173C797.737 577.732 903.399 714.541 893.5 801.044Z" fill="#70C278"/>
<path d="M437.329 468.924C423.803 543.373 413.039 594.809 424.196 671.572C435.352 748.334 468.429 850.423 542.215 886.391C615.696 922.885 729.469 893.37 794.165 825.292C858.751 756.799 873.843 649.856 843.359 579.15C812.876 508.443 737.039 474.806 669.178 417.653C601.844 360.804 542.293 281.383 504.83 289.613C467.062 298.371 450.551 395.001 437.329 468.924Z" fill="#C1D7A2"/>
</g>
</g>
<defs>
<clipPath id="clip0_55_86">
<rect width="1080" height="1080" fill="white"/>
</clipPath>
<clipPath id="clip1_55_86">
<rect width="1373.54" height="978.891" fill="white" transform="translate(310.032 -146) rotate(45.6537)"/>
</clipPath>
</defs>
</svg>
